<svg xmlns="http://www.w3.org/2000/svg" width="24.395" height="30.396" viewBox="0 0 24.395 30.396"><defs><style>.a{fill:none;stroke:#fff;stroke-linecap:round;stroke-linejoin:round;stroke-width:2px;}</style></defs><g transform="translate(-6.998 -4.195)"><path class="a" d="M11.4,5H8.2A3.2,3.2,0,0,0,5,8.2v19.2a3.2,3.2,0,0,0,3.2,3.2h16a3.2,3.2,0,0,0,3.2-3.2V8.2A3.2,3.2,0,0,0,24.2,5H21" transform="translate(2.998 2.998)"/><rect class="a" width="10" height="6" rx="2" transform="translate(14.195 5.195)"/><path class="a" d="M9,20V12" transform="translate(5.396 7.195)"/><path class="a" d="M12,17.6V16" transform="translate(7.195 9.594)"/><path class="a" d="M15,18.8V14" transform="translate(8.994 8.395)"/></g></svg>